<?xml version="1.0" standalone="no"?>
<!DOCTYPE svg PUBLIC "-//W3C//DTD SVG 20010904//EN"
 "http://www.w3.org/TR/2001/REC-SVG-20010904/DTD/svg10.dtd">
<svg version="1.0" xmlns="http://www.w3.org/2000/svg"
 width="300.000000pt" height="300.000000pt" viewBox="0 0 300.000000 300.000000"
 preserveAspectRatio="xMidYMid meet">
<metadata>
Created by potrace 1.10, written by Peter Selinger 2001-2011
</metadata>
<g transform="translate(0.000000,300.000000) scale(0.100000,-0.100000)"
fill="#000000" stroke="none">
<path d="M680 1620 l0 -620 325 0 325 0 0 -120 0 -120 185 0 185 0 0 120 0
120 310 0 310 0 0 620 0 620 -820 0 -820 0 0 -620z m1600 -2 l0 -583 -780 0
-780 0 0 583 0 582 780 0 780 0 0 -582z m-617 -721 l2 -97 -147 0 -148 0 0
100 0 101 146 -3 145 -3 2 -98z"/>
<path d="M760 1618 l0 -563 740 0 740 0 0 563 0 562 -740 0 -740 0 0 -562z
m1442 7 c2 -286 2 -523 0 -527 -2 -5 -318 -8 -702 -8 l-700 0 -2 526 c-2 289
-2 526 -1 527 1 1 317 2 702 2 l701 0 2 -520z"/>
<path d="M1487 1622 c-42 -113 -43 -115 -21 -110 10 2 29 36 49 88 18 47 36
93 40 103 5 13 2 17 -12 17 -16 0 -27 -20 -56 -98z"/>
<path d="M1358 1654 c-38 -19 -68 -38 -68 -43 0 -4 32 -22 70 -39 55 -24 70
-28 70 -16 0 13 -18 23 -85 48 -17 7 -12 12 33 31 30 14 52 30 52 39 0 9 -1
16 -2 16 -2 -1 -33 -17 -70 -36z"/>
<path d="M1570 1675 c0 -9 19 -25 45 -36 25 -11 45 -24 45 -28 0 -5 -20 -14
-45 -21 -32 -9 -45 -18 -45 -31 0 -16 7 -15 70 13 39 17 70 35 70 39 0 5 -31
25 -70 44 -55 28 -70 32 -70 20z"/>
</g>
</svg>
