<?xml version="1.0" standalone="no"?>
<!DOCTYPE svg PUBLIC "-//W3C//DTD SVG 20010904//EN"
 "http://www.w3.org/TR/2001/REC-SVG-20010904/DTD/svg10.dtd">
<svg version="1.0" xmlns="http://www.w3.org/2000/svg"
 width="32.000000pt" height="32.000000pt" viewBox="0 0 32.000000 32.000000"
 preserveAspectRatio="xMidYMid meet">
<metadata>
Created by potrace 1.10, written by Peter Selinger 2001-2011
</metadata>
<g transform="translate(0.000000,32.000000) scale(0.100000,-0.100000)"
fill="#000000" stroke="none">
<path d="M70 170 l0 -70 35 0 c19 0 35 -4 35 -10 0 -5 10 -10 23 -9 21 0 21 1
2 9 -15 6 -6 9 33 9 l52 1 0 70 0 70 -90 0 -90 0 0 -70z m160 5 l0 -55 -70 0
-70 0 0 55 0 55 70 0 70 0 0 -55z"/>
</g>
</svg>
